<svg id="visual" viewBox="0 0 900 600" width="900" height="600" xmlns="http://www.w3.org/2000/svg" xmlns:xlink="http://www.w3.org/1999/xlink" version="1.1"><rect x="0" y="0" width="900" height="600" fill="#ffffff"></rect><path d="M0 418L21.5 418.5C43 419 86 420 128.8 442C171.7 464 214.3 507 257.2 528.2C300 549.3 343 548.7 385.8 520.2C428.7 491.7 471.3 435.3 514.2 439.5C557 443.7 600 508.3 642.8 518.2C685.7 528 728.3 483 771.2 456.3C814 429.7 857 421.3 878.5 417.2L900 413L900 601L878.5 601C857 601 814 601 771.2 601C728.3 601 685.7 601 642.8 601C600 601 557 601 514.2 601C471.3 601 428.7 601 385.8 601C343 601 300 601 257.2 601C214.3 601 171.7 601 128.8 601C86 601 43 601 21.5 601L0 601Z" fill="#f7cdca"></path><path d="M0 408L21.5 432C43 456 86 504 128.8 525.7C171.7 547.3 214.3 542.7 257.2 535.8C300 529 343 520 385.8 508.8C428.7 497.7 471.3 484.3 514.2 483.3C557 482.3 600 493.7 642.8 501C685.7 508.3 728.3 511.7 771.2 502.7C814 493.7 857 472.3 878.5 461.7L900 451L900 601L878.5 601C857 601 814 601 771.2 601C728.3 601 685.7 601 642.8 601C600 601 557 601 514.2 601C471.3 601 428.7 601 385.8 601C343 601 300 601 257.2 601C214.3 601 171.7 601 128.8 601C86 601 43 601 21.5 601L0 601Z" fill="#f5c2b6"></path><path d="M0 562L21.5 559.8C43 557.7 86 553.3 128.8 536C171.7 518.7 214.3 488.3 257.2 488.3C300 488.3 343 518.7 385.8 532.7C428.7 546.7 471.3 544.3 514.2 534.8C557 525.3 600 508.7 642.8 512.2C685.7 515.7 728.3 539.3 771.2 553.8C814 568.3 857 573.7 878.5 576.3L900 579L900 601L878.5 601C857 601 814 601 771.2 601C728.3 601 685.7 601 642.8 601C600 601 557 601 514.2 601C471.3 601 428.7 601 385.8 601C343 601 300 601 257.2 601C214.3 601 171.7 601 128.8 601C86 601 43 601 21.5 601L0 601Z" fill="#efb8a1"></path><path d="M0 533L21.5 536C43 539 86 545 128.8 550.5C171.7 556 214.3 561 257.2 557.8C300 554.7 343 543.3 385.8 545.2C428.7 547 471.3 562 514.2 563.7C557 565.3 600 553.7 642.8 553C685.7 552.3 728.3 562.7 771.2 560C814 557.3 857 541.7 878.5 533.8L900 526L900 601L878.5 601C857 601 814 601 771.2 601C728.3 601 685.7 601 642.8 601C600 601 557 601 514.2 601C471.3 601 428.7 601 385.8 601C343 601 300 601 257.2 601C214.3 601 171.7 601 128.8 601C86 601 43 601 21.5 601L0 601Z" fill="#e6b08b"></path><path d="M0 578L21.5 579.7C43 581.3 86 584.7 128.8 581.7C171.7 578.7 214.3 569.3 257.2 569.2C300 569 343 578 385.8 571.3C428.7 564.7 471.3 542.3 514.2 535.7C557 529 600 538 642.8 548C685.7 558 728.3 569 771.2 571.8C814 574.7 857 569.3 878.5 566.7L900 564L900 601L878.5 601C857 601 814 601 771.2 601C728.3 601 685.7 601 642.8 601C600 601 557 601 514.2 601C471.3 601 428.7 601 385.8 601C343 601 300 601 257.2 601C214.3 601 171.7 601 128.8 601C86 601 43 601 21.5 601L0 601Z" fill="#d9a976"></path><path d="M0 575L21.5 569C43 563 86 551 128.8 547.7C171.7 544.3 214.3 549.7 257.2 557.3C300 565 343 575 385.8 581C428.7 587 471.3 589 514.2 588.2C557 587.3 600 583.7 642.8 581.3C685.7 579 728.3 578 771.2 570.3C814 562.7 857 548.3 878.5 541.2L900 534L900 601L878.5 601C857 601 814 601 771.2 601C728.3 601 685.7 601 642.8 601C600 601 557 601 514.2 601C471.3 601 428.7 601 385.8 601C343 601 300 601 257.2 601C214.3 601 171.7 601 128.8 601C86 601 43 601 21.5 601L0 601Z" fill="#c8a461"></path></svg>