<svg id="visual" viewBox="0 0 1920 1080" width="1920" height="1080" xmlns="http://www.w3.org/2000/svg" xmlns:xlink="http://www.w3.org/1999/xlink" version="1.1"><rect x="0" y="0" width="1920" height="1080" fill="#f2f2f2"></rect><g fill="none" stroke="#ff0041" stroke-width="4"><path d="M0 -133.1L29.9 -41.1L126.6 -41.1L48.3 15.7L78.2 107.7L0 50.8L-78.2 107.7L-48.3 15.7L-126.6 -41.1L-29.9 -41.1Z" transform="translate(251 1058)"></path><path d="M0 -8.5L1.9 -2.6L8.1 -2.6L3.1 1L5 6.9L0 3.2L-5 6.9L-3.1 1L-8.1 -2.6L-1.9 -2.6Z" transform="translate(742 195)"></path><path d="M0 -99.1L22.2 -30.6L94.3 -30.6L36 11.7L58.3 80.2L0 37.9L-58.3 80.2L-36 11.7L-94.3 -30.6L-22.2 -30.6Z" transform="translate(338 158)"></path><path d="M0 -27.4L6.1 -8.5L26 -8.5L9.9 3.2L16.1 22.1L0 10.5L-16.1 22.1L-9.9 3.2L-26 -8.5L-6.1 -8.5Z" transform="translate(1800 26)"></path><path d="M0 -125.5L28.2 -38.8L119.4 -38.8L45.6 14.8L73.8 101.6L0 47.9L-73.8 101.6L-45.6 14.8L-119.4 -38.8L-28.2 -38.8Z" transform="translate(1531 572)"></path><path d="M0 -33L7.4 -10.2L31.4 -10.2L12 3.9L19.4 26.7L0 12.6L-19.4 26.7L-12 3.9L-31.4 -10.2L-7.4 -10.2Z" transform="translate(164 382)"></path><path d="M0 -128.4L28.8 -39.7L122.1 -39.7L46.6 15.2L75.4 103.8L0 49L-75.4 103.8L-46.6 15.2L-122.1 -39.7L-28.8 -39.7Z" transform="translate(1219 888)"></path><path d="M0 -51.9L11.7 -16L49.4 -16L18.9 6.1L30.5 42L0 19.8L-30.5 42L-18.9 6.1L-49.4 -16L-11.7 -16Z" transform="translate(597 814)"></path><path d="M0 -35.9L8.1 -11.1L34.1 -11.1L13 4.2L21.1 29L0 13.7L-21.1 29L-13 4.2L-34.1 -11.1L-8.1 -11.1Z" transform="translate(917 996)"></path><path d="M0 -46.2L10.4 -14.3L44 -14.3L16.8 5.5L27.2 37.4L0 17.7L-27.2 37.4L-16.8 5.5L-44 -14.3L-10.4 -14.3Z" transform="translate(1844 988)"></path><path d="M0 -92.5L20.8 -28.6L88 -28.6L33.6 10.9L54.4 74.8L0 35.3L-54.4 74.8L-33.6 10.9L-88 -28.6L-20.8 -28.6Z" transform="translate(997 76)"></path><path d="M0 -68.9L15.5 -21.3L65.5 -21.3L25 8.1L40.5 55.7L0 26.3L-40.5 55.7L-25 8.1L-65.5 -21.3L-15.5 -21.3Z" transform="translate(1725 318)"></path></g></svg>